<?xml version="1.0" encoding="UTF-8"?>
<svg width="16px" height="16px" viewBox="0 0 16 16" version="1.1" xmlns="http://www.w3.org/2000/svg" xmlns:xlink="http://www.w3.org/1999/xlink">
    <!-- Generator: Sketch 46.2 (44496) - http://www.bohemiancoding.com/sketch -->
    <title>Shape</title>
    <desc>Created with Sketch.</desc>
    <defs></defs>
    <g id="UI-V3" stroke="none" stroke-width="1" fill="none" fill-rule="evenodd">
        <g id="1.8-More-Education-Details" transform="translate(-536.000000, -111.000000)" fill="#796EFF">
            <g id="Form-Element" transform="translate(512.000000, 96.000000)">
                <g id="Heading-Section">
                    <path d="M27.8,22 L33.0464466,16.7535534 L33.0464466,16.7535534 C33.2417088,16.5582912 33.2417088,16.2417088 33.0464466,16.0464466 L32.3535534,15.3535534 L32.3535534,15.3535534 C32.1582912,15.1582912 31.8417088,15.1582912 31.6464466,15.3535534 L24.3535534,22.6464466 L24.3535534,22.6464466 C24.1582912,22.8417088 24.1582912,23.1582912 24.3535534,23.3535534 L31.6464466,30.6464466 L31.6464466,30.6464466 C31.8417088,30.8417088 32.1582912,30.8417088 32.3535534,30.6464466 L33.0464466,29.9535534 L33.0464466,29.9535534 C33.2417088,29.7582912 33.2417088,29.4417088 33.0464466,29.2464466 L27.8,24 L39.5,24 L39.5,24 C39.7761424,24 40,23.7761424 40,23.5 L40,22.5 L40,22.5 C40,22.2238576 39.7761424,22 39.5,22 L27.8,22 Z" id="Shape"></path>
                </g>
            </g>
        </g>
    </g>
</svg>
